Coordinates
version=1
nRows=14
nColumns=36
inDegrees=yes

Units are S.I. units (second, meters, Newtons, ...)
If the header above contains a line with 'inDegrees', this indicates whether rotational values are in degrees (yes) or radians (no).

endheader
time	pelvis_tilt	pelvis_list	pelvis_rotation	pelvis_tx	pelvis_ty	pelvis_tz	hip_flexion_r	hip_adduction_r	hip_rotation_r	knee_angle_r	knee_angle_r_beta	ankle_angle_r	subtalar_angle_r	mtp_angle_r	hip_flexion_l	hip_adduction_l	hip_rotation_l	knee_angle_l	knee_angle_l_beta	ankle_angle_l	subtalar_angle_l	mtp_angle_l	lumbar_extension	lumbar_bending	lumbar_rotation	arm_flex_r	arm_add_r	arm_rot_r	elbow_flex_r	pro_sup_r	arm_flex_l	arm_add_l	arm_rot_l	elbow_flex_l	pro_sup_l
      7.41666670	     -4.28994894	     -8.71633712	      9.92668969	      0.58862365	      0.93305703	     -0.16705252	     38.40673299	      3.82116721	     -0.03551120	     69.47091789	      1.21249625	      3.63591348	    -24.28082071	     -7.49999987	     15.70463879	      0.40403800	      1.52364587	     19.67537345	      0.34340005	     12.04365603	     -4.14229983	     -7.49999987	     -1.15738869	      0.57692604	     -2.90256017	     47.27192379	     10.73140035	     66.67390514	    133.50379723	     95.21415120	     44.04905839	      9.11226296	     72.91895678	    125.34779389	     63.65727513
      7.43333330	     -4.38558526	     -8.73150356	     10.13786595	      0.58847801	      0.93254014	     -0.16702893	     38.19012969	      3.66414522	     -0.43504670	     69.31464790	      1.20976883	      3.58894017	    -24.82076696	     -7.49999987	     15.91192764	      0.39822720	      1.75855147	     19.87494845	      0.34688329	     12.26697125	     -3.83319439	     -7.49999987	     -1.00095553	      0.41189260	     -3.04498537	     47.16388282	     10.57196145	     66.34842427	    133.53731762	     94.16913237	     44.12745205	      9.07605099	     72.73654399	    125.27549192	     63.49188904
      7.45000000	     -4.26634019	     -8.73597241	     10.34801775	      0.58859943	      0.93235767	     -0.16738461	     37.99544508	      3.57542922	     -0.70029588	     69.22391495	      1.20818524	      3.76825971	    -25.63639724	     -7.49999987	     15.87641624	      0.37271870	      1.96177058	     19.96151137	      0.34839410	     12.63901400	     -3.53672185	     -7.49999987	     -1.16999122	      0.32198736	     -3.24263374	     47.21824060	     10.52910943	     66.06332214	    133.65216482	     93.28718809	     44.29852356	      9.02600334	     72.57906864	    125.39766855	     63.39657307
      7.46666670	     -4.14142549	     -8.87757720	     10.56115117	      0.58808259	      0.93471073	     -0.16719393	     37.70172493	      3.63033927	     -1.13707145	     68.67172075	      1.19854763	      3.41365760	    -26.50540740	     -7.49999987	     15.67362501	      0.21239074	      2.18554416	     19.74492299	      0.34461392	     12.69943850	     -3.14589070	     -7.49999987	     -1.47452375	      0.45791893	     -3.38696804	     47.33757370	     10.42212333	     65.94990024	    133.19038156	     93.06753571	     44.41249363	      8.94427367	     72.66933829	    125.19561621	     63.36738699
      7.48333330	     -4.01087249	     -8.93319569	     10.84916792	      0.59329745	      0.93252533	     -0.16429780	     37.32212426	      3.62078830	     -1.69700347	     68.23833876	      1.19098369	      3.81935148	    -26.64930688	     -7.49999987	     15.30486730	      0.01869868	      2.29204830	     19.56150320	      0.34141264	     13.08099185	     -2.62244841	     -7.49999987	     -1.44984464	      0.36073346	     -3.46461386	     47.16318853	     10.44169655	     65.62234522	    132.74634087	     93.25806667	     44.19185609	      8.79396501	     72.68749924	    125.23374629	     63.38183620
      7.50000000	     -3.94112319	     -8.99948793	     11.05414411	      0.59280088	      0.93226584	     -0.16421772	     37.37297450	      3.51772136	     -2.11373493	     68.08844573	      1.18836756	      4.94931266	    -26.74658694	     -7.49999987	     15.16384904	     -0.07516473	      2.56590131	     19.42847663	      0.33909089	     13.17294289	     -2.26634902	     -7.49999987	     -1.41260352	      0.25567458	     -3.44150087	     47.05898415	     10.37111041	     65.52739211	    132.66951456	     92.42591020	     43.98776709	      8.73172988	     72.67174885	    125.43646962	     63.34644080
      7.51666670	     -3.67944192	     -9.19316809	     11.25415837	      0.59248971	      0.93252588	     -0.16469282	     37.24470749	      3.52814097	     -2.22916144	     67.14294776	      1.17186551	      4.93064055	    -26.62465607	     -7.49999987	     14.49740029	     -0.33685643	      2.77986475	     18.83090776	      0.32866134	     13.63164978	     -1.62563424	     -7.49999987	     -1.49847026	      0.25530841	     -3.65149578	     46.95914586	     10.46575572	     65.36928237	    132.35664753	     91.85521313	     43.99792525	      8.75684348	     72.58121727	    125.24851631	     63.24378916
      7.53333330	     -3.75638995	     -9.32600464	     11.54344297	      0.59224944	      0.93221635	     -0.16471476	     37.40958821	      3.27200857	     -2.14034464	     65.66130986	      1.14600605	      4.06601515	    -26.23791511	     -7.49999987	     14.52530898	     -0.42286991	      3.21117090	     18.73784116	      0.32703702	     13.76103177	     -1.50836635	     -7.49999987	     -1.23363164	      0.16845667	     -3.84928646	     46.64804713	     10.52040646	     65.35341458	    132.40444006	     91.04787187	     43.82707655	      8.76325489	     72.43624583	    125.28206065	     63.15625694
      7.55000000	     -3.83384038	     -9.35369642	     11.34812146	      0.59211624	      0.93213652	     -0.16475535	     37.35392310	      3.11861023	     -1.87949868	     63.32306896	      1.10519605	      3.24315327	    -25.55012121	     -7.49999987	     14.51385002	     -0.48997028	      3.36274799	     18.53263887	      0.32345557	     13.84606190	     -1.44590418	     -7.49999987	     -1.06367149	      0.08490945	     -3.68178947	     46.57737262	     10.56383323	     65.36508727	    132.27093812	     91.17778281	     43.76531735	      8.78945544	     72.42144897	    125.43319797	     63.16563495
      7.56666670	     -3.97202825	     -9.47402765	     11.03750916	      0.59182920	      0.93213670	     -0.16398911	     37.57155545	      3.45025064	     -1.42405166	     59.39968927	      1.03672015	      5.53788609	    -22.84297941	     -7.49999987	     14.55733055	     -0.64225288	      3.22025850	     18.20449913	      0.31772845	     14.13775779	     -1.42927979	     -7.49999987	     -1.12280625	      0.31346675	     -3.57031328	     46.69830834	     10.78397566	     65.61930002	    131.84922752	     91.60499598	     43.57553955	      8.51857791	     72.20864184	    125.57695829	     63.22462804
      7.58333330	     -4.15987294	     -9.42781584	     10.92105396	      0.59161133	      0.93271512	     -0.16378392	     37.72483604	      3.63721288	     -0.92995534	     55.00732394	      0.96005892	      9.14082468	    -18.64974357	     -7.49999987	     14.73441982	     -0.56658138	      3.14253901	     18.14039302	      0.31660959	     14.10528392	     -2.06359609	     -7.49999987	     -1.16095485	      0.22047167	     -3.53081378	     46.56543706	     10.88270447	     65.91232550	    131.82076715	     91.58554788	     43.32931891	      8.46004872	     72.23908308	    125.68213801	     63.31984475
      7.60000000	     -4.25443986	     -9.23005896	     10.76239299	      0.59072416	      0.93012581	     -0.16318524	     37.27875129	      3.36631295	     -0.80743093	     52.66154718	      0.91911739	     10.39045900	    -16.97762737	     -7.49999987	     15.12050920	     -0.37726215	      2.82729260	     18.82444922	      0.32854862	     13.58304053	     -2.60352466	     -7.49999987	     -1.29990334	     -0.07713130	     -3.50095104	     46.49309416	     10.92658497	     66.27244896	    132.19919546	     93.93669750	     43.21236210	      8.36006773	     72.11412358	    125.48099345	     64.12499757
      7.61666670	     -4.46075418	     -8.95703589	     10.50591675	      0.59123349	      0.93002049	     -0.16336651	     36.92649000	      2.83523362	     -0.25382914	     50.70136029	      0.88490567	     10.32968689	    -16.39480585	     -7.49999987	     15.44777410	     -0.09508116	      2.42404399	     19.40108434	      0.33861280	     13.41475975	     -2.80470988	     -7.49999987	     -1.07000537	     -0.42163832	     -3.32368721	     46.12321873	     10.99733075	     66.44954565	    132.51277309	     93.00268363	     42.64842521	      8.43599715	     71.92692796	    125.61413901	     64.02217895
      7.63333330	     -4.51536035	     -8.77490896	     10.21733463	      0.59108668	      0.93015479	     -0.16304592	     36.33426991	      2.35785480	      0.28516667	     48.25071657	      0.84213387	      9.53824663	    -16.16857789	     -7.49999987	     15.64188974	      0.10309869	      2.10075575	     19.87028967	      0.34680198	     13.33753497	     -3.06469868	     -7.49999987	     -1.22172003	     -0.56526540	     -3.23162912	     45.99862269	     11.10104889	     66.72651784	    132.63478867	     93.20042038	     42.37200828	      8.26393725	     71.36220508	    125.22815428	     64.06196406
